<svg xmlns="http://www.w3.org/2000/svg" viewBox="117 241 1559 553"><path fill="#DB0038" d="M805.43 611.43c4.406 1.746 9.09 2.629 13.922 2.629 7.187 0 13.343-1.657 18.828-5.059l.07-.047c5.418-3.219 9.82-7.77 13.07-13.523 2.774-5.114 4.18-10.922 4.18-17.266 0-6.187-1.414-11.926-4.2-17.059-3.081-5.734-7.484-10.359-13.085-13.757-5.524-3.426-11.684-5.082-18.863-5.082-4.985 0-9.649.964-13.868 2.851l-.078.035-.09.04a35.3 35.3 0 0 0-6.183 3.199 33 33 0 0 0-5.203 4.214c-3.266 3.579-5.907 7.489-7.848 11.633-1.738 4.395-2.617 9.082-2.617 13.926 0 5.152.867 9.82 2.594 13.875 1.933 4.137 4.562 8.047 7.808 11.613 3.547 3.235 7.438 5.848 11.563 7.778m13.922 33.367c-9.329 0-18.106-1.707-26.098-5.078-7.813-3.364-14.89-8.2-21.078-14.383l-.086-.094c-5.957-6.308-10.676-13.34-14.016-20.906l-.039-.086c-3.527-8.477-5.32-17.258-5.32-26.086 0-9.02 1.8-17.738 5.351-25.898 3.34-7.918 8.094-15 14.11-21.028 6.195-6.18 13.277-11.02 21.047-14.37l.05-.024c8.461-3.524 17.235-5.309 26.079-5.309 8.707 0 16.996 1.664 24.644 4.961 7.613 3.277 14.352 7.82 20.043 13.5 5.664 5.66 10.207 12.406 13.504 20.035 3.297 7.664 4.96 15.957 4.96 24.645v44.3c0 6.504-2.276 12.075-6.769 16.56-4.492 4.495-10.062 6.773-16.562 6.773h-1.242c-2.422 0-4.688-.313-6.746-.938-1.43-.422-3.293-.793-5.54-1.098a12 12 0 0 0-1.476-.101c-1.102 0-2.063.18-2.95.55-6.308 2.7-13.679 4.075-21.866 4.075m117.269-36.731c.98.563 1.988 1.118 3.004 1.66q1.384.747 3.066 1.376l.192.07.18.086c3.863 1.855 8.492 2.8 13.765 2.8 7.04 0 13.207-1.667 18.86-5.085l.078-.047c5.586-3.227 9.738-7.668 12.699-13.582l.055-.106.062-.105c2.906-5.098 4.387-10.805 4.387-16.969 0-5.887-1.5-11.726-4.461-17.355-2.977-5.633-7.168-10.036-12.82-13.457-5.657-3.418-11.825-5.086-18.86-5.086-5.27 0-9.902.945-13.765 2.804l-.086.043-.094.035c-2.082.891-4.203 2.028-6.313 3.383-1.55.989-3.222 2.38-4.996 4.14-3.234 3.243-5.855 7.138-7.765 11.567a34.8 34.8 0 0 0-2.88 13.926c0 4.84.97 9.52 2.876 13.918 1.922 4.45 4.539 8.34 7.773 11.57a51 51 0 0 0 5.043 4.414m67.234 91.723c-4.687 0-8.585-1.523-11.585-4.535-3-2.988-4.516-6.8-4.516-11.328v-48.422a65 65 0 0 1-3.48 2.297c-1.618.992-3.454 1.953-5.458 2.867l-.136.055c-6.496 2.703-13.844 4.074-21.852 4.074-8.64 0-17.308-1.781-25.762-5.29-7.671-2.862-14.796-7.64-21.183-14.194-5.828-5.84-10.653-12.977-14.324-21.211-3.391-7.493-5.114-16.227-5.114-25.938 0-9.703 1.72-18.426 5.11-25.934 3.527-8.101 8.355-15.253 14.351-21.242 6.012-6.011 13.102-10.77 21.063-14.136 8.48-3.532 17.176-5.32 25.86-5.32 8.866 0 17.081 1.718 24.417 5.1 7.61 3.196 14.344 7.692 20.012 13.364 5.68 5.676 10.172 12.402 13.36 20.008 3.39 7.336 5.105 15.558 5.105 24.422v109.5c0 4.355-1.606 8.168-4.774 11.332-3.011 3.008-6.742 4.531-11.094 4.531m86.25-54.992c-4.609 0-9.027-.457-13.136-1.352-4.117-.894-8.012-2.16-11.574-3.773l-.122-.055c-7.347-3.578-13.535-8.41-18.41-14.36-4.793-5.87-8.722-13-11.687-21.202l-.035-.11c-2.625-7.883-3.957-16.39-3.957-25.285v-49.273c0-4.18 1.52-7.824 4.523-10.836 3.023-3.012 6.668-4.535 10.852-4.535 4.175 0 7.816 1.523 10.832 4.527 3.011 3.02 4.527 6.664 4.527 10.844v48.777c0 4.746.629 9.656 1.867 14.606 1.024 4.257 2.785 8.074 5.235 11.378l.078.11.074.11c2.039 3.128 4.77 5.456 8.351 7.112l.16.075.157.086c3.125 1.77 7.254 2.664 12.265 2.664h.25c4.727 0 8.899-.918 12.391-2.739l.129-.062c3.113-1.488 5.965-3.934 8.5-7.262 2.18-3.383 3.973-7.281 5.332-11.594 1.211-4.918 1.828-9.793 1.828-14.484v-48.777c0-4.153 1.461-7.778 4.34-10.778 2.902-3.004 6.71-4.593 11.031-4.593 4.364 0 8.063 1.613 10.715 4.66 2.918 2.988 4.395 6.586 4.395 10.71v49.274c0 8.895-1.325 17.403-3.95 25.285l-.02.059c-1.394 4.004-3.03 7.808-4.862 11.3a58.5 58.5 0 0 1-6.606 9.962l-.047.058c-5.199 6.094-11.476 10.91-18.64 14.313-7.414 3.43-15.735 5.16-24.786 5.16m122.45-33.367c4.41 1.746 9.093 2.629 13.925 2.629 7.184 0 13.344-1.657 18.825-5.059l.074-.047c5.418-3.219 9.82-7.77 13.07-13.523 2.774-5.114 4.18-10.922 4.18-17.266 0-6.187-1.414-11.926-4.2-17.059-3.085-5.734-7.484-10.359-13.085-13.757-5.524-3.426-11.684-5.082-18.864-5.082-4.984 0-9.648.964-13.867 2.851l-.078.035-.086.04a35.3 35.3 0 0 0-6.191 3.199 33.5 33.5 0 0 0-5.2 4.214c-3.269 3.579-5.906 7.489-7.847 11.633-1.742 4.399-2.625 9.082-2.625 13.926 0 5.152.875 9.82 2.601 13.875 1.934 4.137 4.563 8.047 7.805 11.613 3.551 3.235 7.442 5.848 11.563 7.778m13.925 33.367c-9.328 0-18.109-1.707-26.097-5.078-7.805-3.364-14.89-8.196-21.078-14.383l-.086-.094c-5.957-6.312-10.676-13.347-14.016-20.906l-.039-.086c-3.531-8.477-5.32-17.258-5.32-26.086 0-9.02 1.8-17.738 5.351-25.898 3.34-7.914 8.094-15 14.11-21.028 6.195-6.18 13.273-11.02 21.043-14.37l.054-.024c8.461-3.524 17.235-5.309 26.078-5.309 8.704 0 16.993 1.664 24.645 4.961 7.613 3.277 14.352 7.82 20.04 13.5 5.667 5.66 10.21 12.406 13.507 20.035 3.289 7.664 4.96 15.95 4.96 24.645v44.3c0 6.504-2.277 12.075-6.769 16.56-4.492 4.495-10.062 6.773-16.562 6.773h-1.242c-2.422 0-4.692-.313-6.75-.938-1.426-.422-3.29-.793-5.536-1.098a12 12 0 0 0-1.48-.101c-1.098 0-2.059.18-2.945.55-6.313 2.7-13.68 4.075-21.868 4.075m183.16 0c-4.19 0-7.792-1.48-10.722-4.406-2.922-2.922-4.402-6.528-4.402-10.711v-50.274c0-5.25-.746-9.922-2.215-13.886l-.047-.114-.035-.117c-1.309-4.215-3.274-7.875-5.848-10.871l-.133-.152-.117-.16c-2.016-2.833-5.027-5.196-8.96-7.028l-.083-.039-.082-.043c-3.504-1.816-7.762-2.738-12.652-2.738-4.172 0-8.27.804-12.184 2.375a29.5 29.5 0 0 0-8.875 6.32 80 80 0 0 0-3.539 4.805 25.3 25.3 0 0 0-2.637 5.074l-.054.129c-1.598 3.777-2.48 7.828-2.633 12.047v54.672c0 4.183-1.48 7.789-4.402 10.71-2.926 2.926-6.528 4.407-10.72 4.407h-1.241c-4.196 0-7.946-1.652-10.84-4.777-2.84-3.079-4.285-7.395-4.285-12.829V477.625c0-4.516 1.527-8.332 4.539-11.336 2.996-3.004 6.726-4.527 11.082-4.527 4.507 0 8.316 1.523 11.328 4.523 3.015 3.008 4.539 6.824 4.539 11.34v34.098c0 .652.195 1.101.691 1.593.504.508.957.707 1.61.707h27.62c8.91 0 17.243 1.813 24.762 5.383 7.82 3.57 14.258 8.285 19.13 14.04 5.132 5.69 9.261 12.683 12.269 20.784 2.816 7.415 4.246 15.895 4.246 25.176v50.274c0 4.183-1.48 7.789-4.406 10.71-2.922 2.926-6.524 4.407-10.703 4.407m75.945-33.344c4.066 1.727 8.738 2.606 13.883 2.606 4.843 0 9.523-.883 13.922-2.63 4.144-1.937 8.058-4.57 11.64-7.835 1.582-1.606 3-3.36 4.215-5.207a36 36 0 0 0 3.2-6.18l.07-.172.078-.16a24 24 0 0 0 2.097-6.312 40.5 40.5 0 0 0 .668-7.395c0-4.984-.957-9.656-2.843-13.879l-.04-.078-.03-.09a36 36 0 0 0-3.208-6.195 34 34 0 0 0-4.281-5.27 34.3 34.3 0 0 0-5.262-4.27 35.3 35.3 0 0 0-6.187-3.198l-.086-.032-.09-.039c-4.215-1.89-8.879-2.851-13.863-2.851a40 40 0 0 0-7.39.672 24 24 0 0 0-6.317 2.101l-.164.082-.168.067a35.6 35.6 0 0 0-6.196 3.207 33 33 0 0 0-5.195 4.21c-3.273 3.582-5.906 7.493-7.836 11.63-1.75 4.413-2.633 9.1-2.633 13.933 0 5.133.88 9.8 2.614 13.875 1.918 4.129 4.535 8.031 7.793 11.61 3.582 3.257 7.488 5.882 11.609 7.8m13.883 33.344c-9.344 0-18.051-1.711-25.887-5.09-7.941-3.352-15.117-8.191-21.285-14.375a60 60 0 0 1-8.043-9.93 75.7 75.7 0 0 1-6.07-11.34c-3.547-8.132-5.348-16.847-5.348-25.894 0-9.043 1.797-17.746 5.336-25.887 3.351-7.941 8.105-15.027 14.133-21.043 6.168-6.176 13.34-11.015 21.304-14.383 8.106-3.527 16.82-5.324 25.86-5.324 9.02 0 17.718 1.793 25.87 5.328 8.114 3.364 15.2 8.2 21.06 14.38 6.175 5.859 11.011 12.945 14.378 21.058 3.535 8.156 5.325 16.86 5.325 25.871 0 9.02-1.793 17.73-5.344 25.898-3.332 7.891-8.156 15.043-14.317 21.22-5.863 6.21-12.964 11.062-21.113 14.429-7.824 3.375-16.523 5.082-25.86 5.082m129.595-34.375c-5.079 0-21.626-1.172-21.626-16.305V546.04h13.516c8.629 0 16.367-6.465 16.82-15.082.48-9.195-6.828-16.8-15.918-16.8h-14.418V496.72c0-8.637-6.468-16.367-15.09-16.82-9.187-.477-16.788 6.831-16.788 15.917v98.301c0 28.207 21.742 47.957 52.953 48.188 7.8.058 14.933-5.434 16.25-13.117 1.718-10.051-5.969-18.766-15.7-18.766m27.723-112.283c1.469 0 2.367-.816 2.367-2.124 0-1.348-.898-2.16-2.367-2.16h-1.879v4.285Zm-.691 3.184h-1.188v5.672h-3.875v-16.328h6.45c3.144 0 5.593 2.367 5.593 5.309 0 2.164-1.265 3.918-3.144 4.734l3.261 6.285h-4.285Zm.367 9.508c6.488 0 11.555-5.223 11.555-11.879 0-6.691-5.067-11.918-11.555-11.918-6.492 0-11.555 5.227-11.555 11.918 0 6.656 5.063 11.879 11.555 11.879m0-27.023c8.324 0 15.101 6.816 15.101 15.144 0 8.29-6.777 15.11-15.101 15.11-8.328 0-15.02-6.82-15.02-15.11 0-8.328 6.692-15.144 15.02-15.144M665.422 632.348 450.3 259.746c-11.352-19.664-39.73-19.664-51.078 0l-273.84 474.3c-11.293 19.563 2.82 44.016 25.406 44.016h147.934a73.68 73.68 0 0 0 63.816-36.851l62.227-107.766s83.386-144.433 83.398-144.457c7.746-13.414 26.606-15.82 37.399-4.754 8.257 8.47 12.066 21.426 5.87 32.16l-66.945 115.954c-19.66 34.047-17.957 74.547.914 106.035.332.558.672 1.11 1.012 1.664.563.898 1.145 1.789 1.73 2.672q.553.822 1.11 1.625c.629.894 1.262 1.789 1.91 2.66.352.465.7.926 1.055 1.383.722.945 1.46 1.879 2.219 2.793.285.347.578.687.867 1.027.86 1.012 1.734 2.016 2.636 3q.293.318.59.637a105 105 0 0 0 3.121 3.215c.09.09.188.175.282.27a101 101 0 0 0 5.308 4.808c.719.617 1.465 1.195 2.203 1.785 1.125.91 2.262 1.8 3.434 2.668.879.644 1.762 1.27 2.652 1.887q1.665 1.136 3.375 2.226c.91.578 1.817 1.152 2.742 1.7.368.222.711.46 1.079.671q2.29 1.321 4.617 2.512l.191.098c1.367.699 2.746 1.351 4.13 1.984.315.144.624.289.937.43 1.086.48 2.175.93 3.27 1.37.608.247 1.222.5 1.831.735.762.29 1.527.555 2.285.824.934.332 1.864.668 2.801.973.422.137.848.258 1.266.387 1.261.386 2.515.77 3.793 1.113.086.023.18.043.27.07a104 104 0 0 0 19.519 3.258c.136.008.27.008.406.02 1.488.101 2.98.175 4.477.21.808.016 1.625.005 2.433.005.817 0 1.629.011 2.442-.004 1.496-.036 2.984-.11 4.472-.211.137-.012.27-.012.41-.02a104 104 0 0 0 19.516-3.258c.094-.027.184-.047.273-.07 1.266-.344 2.532-.727 3.786-1.113.425-.13.843-.25 1.265-.387.942-.305 1.867-.64 2.805-.973.758-.27 1.523-.535 2.281-.824.613-.234 1.223-.488 1.832-.734 1.098-.442 2.188-.89 3.274-1.371.312-.141.62-.285.933-.43a102 102 0 0 0 4.13-1.984l.194-.098a106 106 0 0 0 4.614-2.512c.37-.21.715-.449 1.086-.672a94 94 0 0 0 2.738-1.699 108 108 0 0 0 6.023-4.113 97 97 0 0 0 3.434-2.668c.738-.59 1.488-1.168 2.203-1.785a104 104 0 0 0 5.316-4.809c.09-.094.188-.18.282-.27a110 110 0 0 0 3.707-3.851c.902-.984 1.777-1.988 2.636-3q.44-.508.868-1.027a90 90 0 0 0 2.218-2.793c.352-.457.704-.918 1.047-1.383a92 92 0 0 0 1.914-2.66 97 97 0 0 0 3.855-5.96c18.872-31.49 20.575-71.99.915-106.036M540.258 480.219"/><path fill="#DB0038" d="M359.121 746.531c.094-.129.192-.254.277-.383v-.003c-.086.128-.183.253-.277.386m-12.836 14.086q.013-.005.02-.015c.02-.012.039-.032.05-.043-.023.023-.046.039-.07.058m-7.828 5.778a14 14 0 0 1 .39-.242c-.128.085-.261.156-.39.242m201.801-286.176"/></svg>