<svg xmlns="http://www.w3.org/2000/svg" viewBox="62 234 1807 624"><path fill="#234E96" d="M573.457 238.238h54.781a.55.55 0 0 1 .547.551v273.7a.55.55 0 0 1-.547.55h-54.781a.55.55 0 0 1-.55-.55v-273.7a.55.55 0 0 1 .55-.55m593.324-.001h54.782c.3 0 .546.246.546.551v273.7a.55.55 0 0 1-.546.55h-54.782a.55.55 0 0 1-.55-.55v-273.7a.55.55 0 0 1 .55-.55m634.551 101.738q-.344 53.073.063 106.148c.12 16.152 9.183 17.738 23.367 17.656q19.647-.141 39.195.203c.574.012 1.035.465 1.04 1.016l-.024 46.836c0 .566-.461 1.027-1.035 1.039q-26.743.264-53.297.223-18.92-.042-28.348-3.047c-26.07-8.293-37.082-29.567-37.04-56q.159-107.367.06-214.676c0-.57.464-1.035 1.035-1.035l53.605.101c.57 0 1.035.465 1.035 1.036l.16 48.523a1.57 1.57 0 0 0 1.567 1.566l61.488.079a.795.795 0 0 1 .77.996l-12.192 46.98a1.695 1.695 0 0 1-1.746 1.258 446 446 0 0 0-48.687.02 1.07 1.07 0 0 0-1.016 1.078M496.73 401.238c0-37.761-30.613-68.375-68.375-68.375s-68.375 30.614-68.375 68.375c0 37.762 30.614 68.375 68.375 68.375 37.762 0 68.375-30.613 68.375-68.375m52.93 0c0 67.008-54.32 121.328-121.324 121.328-67.008 0-121.328-54.32-121.328-121.328s54.32-121.324 121.328-121.324c67.004 0 121.324 54.316 121.324 121.324m291.664-.019c0-37.762-30.61-68.375-68.375-68.375-37.761 0-68.37 30.613-68.37 68.375s30.609 68.375 68.37 68.375c37.766 0 68.375-30.614 68.375-68.375m52.973.02c0 67.019-54.328 121.347-121.348 121.347-67.015 0-121.347-54.328-121.347-121.348 0-67.015 54.332-121.343 121.347-121.343 67.02 0 121.348 54.328 121.348 121.343"/><path fill="#234E96" d="M214.777 354.078q-15.563-14.099-32.691-15.098-9.509-.567-59.254-.058c-.57 0-1.035.46-1.035 1.035l-.04 122.95c0 .495.4.894.891.894 21.094-.102 49.825 2.804 68.559-2.535 48.606-13.86 60.676-73.66 23.57-107.188m-8.695-61.344c111.734 27.817 112.387 187.223 1.035 216.645-24.543 6.48-57.199 3.922-83.879 3.578a1.465 1.465 0 0 0-1.48 1.461v.02l-.125 67.949c0 .57-.453 1.035-1.016 1.035l-53.582-.059a1.03 1.03 0 0 1-1.015-1.039L66 290.66c0-.55.441-1.004.996-1.015 33.715-.16 67.399-.184 101.047-.06q25.746.101 38.039 3.15M1025.5 463.781c41.43-.793 70.691-40.578 58.54-80.726-8.735-28.938-32.755-44.418-62.93-44.336q-24.035.057-47.993.344a1.035 1.035 0 0 0-1.015 1.035l.101 122.566c0 .574.453 1.04 1.016 1.04q42.872.241 52.281.077m-53.195 50.414L972 582.387c0 .582-.457 1.054-1.016 1.054l-53.644.125c-.55 0-.996-.464-.996-1.039l-.04-291.703c0-.719.59-1.3 1.321-1.3q51.165.08 102.55-.02 20.871-.04 32.817 2.601c50.047 11.032 87.88 55.368 88.227 107.61.343 54.312-38.688 103.164-93.551 111.86-22.637 3.573-50.434 1.48-74.328 1.605-.57 0-1.035.453-1.035 1.015m353.476-92.699c-32.047.024-34.199 42.106.73 42.227 30.86.105 61.723.101 92.594-.024.563 0 1.016-.46 1.016-1.035l-.14-39.906c0-.551-.465-.996-1.04-.996q-46.77-.303-93.16-.266m-60.918-84.871c4-15.344 8.004-30.664 12.008-46.066.14-.563.66-.957 1.258-.954q63.684-.14 127.402 0c31.68.06 58.989 15.485 68.418 46.47q3.169 10.466 3.168 38.28v138.051a.63.63 0 0 1-.629.63q-74.126.04-148.27 0-21.762-.001-31.882-2.966c-63.031-18.43-62.117-108.89 1.543-126.976q9.41-2.683 26.539-2.64 47.219.099 94.445-.083a1.13 1.13 0 0 0 1.117-1.016c2.336-26.007-2.988-40.027-30.722-40.515a4042 4042 0 0 0-122.89-.285 1.54 1.54 0 0 1-1.56-1.516c-.003-.14.016-.281.055-.414m286.93 83.043c-61.691-17.516-64.172-108.219-1.016-127.2q9.465-2.841 28.059-2.882c42.875-.082 85.824-.066 128.844.039.449 0 .816.363.816.813a.7.7 0 0 1-.023.183l-12.27 47.281a1.17 1.17 0 0 1-1.14.875q-56.773-1.013-113.504-.164c-6.68.114-11.77 1.106-15.278 2.989-19 10.18-10.629 38.3 10.383 38.808q12.007.305 69.672.024 15.668-.083 24.973 2.476c76.097 20.91 59.984 130.149-18.938 130.207q-71.485.042-142.945-.164a1.06 1.06 0 0 1-1.055-1.035l-.184-47.059c0-.562.465-1.015 1.036-1.015 46.52-.067 93.007-.098 139.472-.082q3.676-.001 8.758-3.535c21.434-14.954 6.176-37.614-16.055-37.59-19.195.011-38.394.008-57.605-.024q-21.64-.016-32-2.945"/><path fill="#5A6E7F" d="M1392.406 675.734c8.676-20.867-13.066-18.41-24.933-18.347a1.04 1.04 0 0 0-1.035 1.035v20.644c0 .575.46 1.047 1.035 1.055 5.914.125 22.375 1.77 24.933-4.387m-26.437 25.114.164 26.312c0 .598-.48 1.078-1.078 1.078l-20.907-.062c-.55 0-.996-.48-.996-1.074l.02-87.313c0-.555.453-1.004 1.015-1.016 27.797-.59 84.043-9.328 72.176 40.07-5.242 21.743-30.926 20.442-47.851 19.423-1.324-.078-2.457 1-2.535 2.414a2 2 0 0 0-.008.168m111.394 28.734c-24.73 3.797-47.691-5.914-47.793-34.223-.12-29.218-.136-47.718-.039-55.507.008-.61.469-1.098 1.035-1.098l21.012.02c.55 0 1.004.48 1.016 1.078q.223 23.648.16 47.18c-.04 15.179 2.867 26.374 21.195 22.269 10.543-2.36 10.504-15.016 10.465-23.531q-.124-22.918-.266-45.84c0-.594.446-1.078.997-1.078h21.132c.578.003 1.055.488 1.075 1.097q.734 27.638.12 55.047c-.429 20.05-10.468 31.578-30.109 34.586m99.442-57.363c5.75-18.836-18.309-15.035-27.961-14.832-.586.011-1.055.472-1.055 1.035v18.062c0 .586.465 1.059 1.035 1.059h.02l22.23-.55q4.29-.103 5.73-4.774m11.239 13.652q-.855.367 0 .793c14.914 7.297 11.762 26.66 15.117 40.7.102.448-.164.898-.59.995a.6.6 0 0 1-.183.02h-21.051a1.39 1.39 0 0 1-1.363-1.176c-3.555-25.379-.203-34.098-31.414-31.555-.563.043-.996.532-.996 1.118l.105 30.297c0 .761-.637 1.378-1.422 1.378l-20.89.02c-.864 0-1.563-.7-1.567-1.563 0-.011 0-.027.004-.039.758-28.789.687-57.738-.203-86.847a1.373 1.373 0 0 1 1.34-1.403h.02a1628 1628 0 0 1 48.788.125c11.965.203 24.278 7.395 26.84 19.688 2.235 10.73-1.668 22.676-12.535 27.45M1640.809 708l46.613.145c.598-.004 1.086.44 1.098.996l.304 18.02c.012.694-.597 1.269-1.36 1.28h-.019l-69.656-.02a1.92 1.92 0 0 1-1.93-1.91l.121-86.722c0-.57.465-1.035 1.036-1.035l69.004-.082c.617 0 1.117.453 1.117 1.015l.062 16.52c0 .55-.492.996-1.097.996l-45.555.223c-.606.011-1.086.476-1.078 1.035l.183 13.555c.012.562.516 1.015 1.137 1.015l41.25.184c.594 0 1.078.453 1.078 1.015l.02 15.93c0 .582-.5 1.059-1.117 1.059l-41.211.16c-.637 0-1.157.445-1.157.996v14.61c0 .562.52 1.015 1.157 1.015m107.429 142.48a.716.716 0 0 1-.672-.761.7.7 0 0 1 .043-.215l75.852-210.04c.156-.452.562-.753 1.016-.753l39.683.367c.406.004.727.34.719.742a.7.7 0 0 1-.047.254l-75.508 209.266c-.21.582-.746.984-1.363 1.02a347 347 0 0 1-39.723.12m-562.867-21.863c32.918 20.988 44.176-37.613 19.774-47.304q-7.378-2.926-14.836-.184c-15.887 5.832-15.543 29.18-9.996 41.637q1.647 3.678 5.058 5.851m21.621 23.551c-36.86 7.82-60.449-25.48-52.02-59.254 5.958-23.75 25.22-35.902 49.52-32.512 48.766 6.828 50.047 81.664 2.5 91.766"/><path fill="#5A6E7F" d="M1319.867 843.348c-6.664 7.843-16.418 10.261-26.863 9.386-34.625-2.882-49.191-38.218-36.23-68.273 14.57-33.77 75.14-34.055 80.445 6.363a.91.91 0 0 1-.762 1.028q-.057.006-.113.007l-21.153.02c-.59.004-1.125-.399-1.32-.996q-2.296-7.396-7.516-9.102c-42.246-13.758-41.105 63.864.446 48.95 4.55-1.626 7.703-4.797 9.449-9.063.355-.875-.086-1.871-.996-2.23a1.9 1.9 0 0 0-.629-.13l-13.027-.12a1.085 1.085 0 0 1-1.075-1.079l.04-14.851c0-.559.492-1.016 1.097-1.016l35.05-.246c.563 0 1.024.461 1.036 1.04l.102 47.222c0 .582-.446 1.054-.996 1.054l-12.372-.082c-.699-.015-1.27-.44-1.363-1.015l-.914-5.953c-.312-2.07-1.09-2.38-2.336-.914m235.031-55.738q2.807 4.311 7.868 5.285c17.23 3.293 43.257 8.109 43.421 30.5.305 39.785-75.507 40.332-78.027.265-.078-1.27.828-2.36 2.027-2.437.043 0 .083-.004.126-.004h20.402c.547.004 1.004.488 1.035 1.097 1.16 17.375 31.027 15.016 30.969 3.942-.063-16.906-56.653-6.785-51.754-42.973 4.328-32.023 70.793-32.45 72.113 3.961.02.55-.414 1.012-.976 1.035-.012 0-.028.004-.04.004l-20.726.059c-.582 0-1.11-.403-1.3-.996l-1.24-3.864a3.37 3.37 0 0 0-1.136-1.601c-5.793-4.43-15.484-6.055-21.562-1.2-2.504 1.993-2.907 4.301-1.2 6.926m112.227 40.661c4.836-18.063-50.172-9.043-51.207-39.926-1.258-37.43 70.145-39.239 72.055-1.117.03.55-.368 1.02-.895 1.054-.02 0-.039.004-.062.004l-20.848.059c-.566 0-1.059-.434-1.18-1.04-3.941-20.843-43.644-2.62-16.863 5.31 17.883 5.28 46.55 8.327 42.691 35.046-3.757 25.848-35.703 28.692-55.796 22.66q-18.634-5.593-22.028-26.152c-.246-1.531.774-2.969 2.281-3.215.149-.027.293-.039.442-.039l19.773.043c.637 0 1.164.5 1.2 1.137.648 13.754 14.445 13.531 24.746 11.5q4.512-.873 5.691-5.324m-638.109-34.258c2.558-15.504-16.438-15.18-26.844-13.352-.578.11-.996.625-.996 1.223l.023 20.137c0 .562.45 1.023 1.016 1.035 8.84.183 24.77 3.23 26.8-9.043m-27.757 28.508-.305 27.554c-.012.606-.484 1.086-1.055 1.078l-21.011-.043c-.551 0-.996-.484-.996-1.078l-.059-87.433c0-.563.465-1.016 1.035-1.016 27.758-.547 84.082-8.594 72.559 38.871-5.91 24.383-30.418 20.93-49.172 21.07a1 1 0 0 0-.996.997m112.164-40.536q-11.642-3.293-24.344-1.3a1.22 1.22 0 0 0-1.035 1.199l.14 17.453c.005.559.465 1.023 1.06 1.055 10.241.488 29.91 4.168 29.218-12.008q-.205-5.016-5.04-6.399m.345 39.012c-.907-1.086-2.184-1.734-3.516-1.789l-19.992-.832c-1.223-.055-2.258.934-2.313 2.215q-.005.041-.004.082l-.12 29.441c0 .586-.458 1.059-1.016 1.059l-20.36.121c-.976 0-1.77-.82-1.77-1.828l.122-86.703c0-.578.453-1.047 1.015-1.059q31.048-.75 48.708-.039c9.425.387 19.566 4.836 24.382 13.27 6.422 11.277 2.621 27.187-9.367 33.789q-.874.467-.02.976 9.752 5.709 10.81 15.79 1.808 17.392 3.554 24.847a.794.794 0 0 1-.586.957q-.095.019-.184.02l-19.793.019c-1.414.004-2.625-1.05-2.843-2.477-1.442-9.085-.813-20.726-6.707-27.859m289.511-38.992q-3.07-1.646-6.175-1.645l-18.454-.02c-.503 0-.914.473-.914 1.056l.102 17.878c0 .579.426 1.055.976 1.098 11.907.813 31.637 3.152 28.774-12.617q-.693-3.821-4.309-5.75m-25.562 38.02.101 30.05c0 .594-.464 1.074-1.035 1.074l-21.418-.039c-.57 0-1.035-.48-1.035-1.078l.02-87.293c0-.554.468-1.011 1.058-1.035 26.637-.648 69.266-6.437 74.938 18.434q4.326 18.874-11.278 28.566a.59.59 0 0 0-.16.824.7.7 0 0 0 .2.192c13.492 7.722 11.195 26.597 14.12 40.418a.843.843 0 0 1-.628 1.011c-.051.016-.11.02-.164.024l-19.2.16c-1.832.016-3.379-1.418-3.578-3.309-2.699-25.28-1.238-31.62-30.984-29.12-.54.042-.953.527-.957 1.12m91.844-38.609.164 13.434c0 .558.492 1.011 1.097 1.011l41.29.106c.773 0 1.402.597 1.402 1.34v.039l-.348 15.402c-.012.567-.5 1.02-1.098 1.016l-41.246.144c-.605 0-1.097.461-1.097 1.035v14.938c0 .57.5 1.031 1.117 1.031l46.797.164c.57 0 1.035.438 1.035.977v.02l-.145 18.105c-.011.574-.496 1.035-1.097 1.035l-70.078-.063a1.013 1.013 0 0 1-1.016-1.011v-87.414c0-.563.473-1.02 1.055-1.02l68.984-.101c.605 0 1.098.464 1.098 1.039l.203 16.578c.012.539-.453.984-1.035.996h-.024l-45.96.164c-.606 0-1.098.465-1.098 1.035"/></svg>